<?xml version="1.0" encoding="utf-8"?>
<!-- Generator: Adobe Illustrator 21.1.0, SVG Export Plug-In . SVG Version: 6.00 Build 0)  -->
<svg version="1.1" xmlns="http://www.w3.org/2000/svg" xmlns:xlink="http://www.w3.org/1999/xlink" x="0px" y="0px"
	 viewBox="0 0 540.7 538.9" style="enable-background:new 0 0 540.7 538.9;" xml:space="preserve">
<style type="text/css">
	.st0{display:none;}
	.st1{display:inline;}
	.st2{fill:#EDE9E8;}
	.st3{fill:#FFFFFF;}
	.st4{display:inline;fill:#EDE9E8;}
	.st5{display:inline;fill:none;stroke:#EDE9E8;stroke-width:40;stroke-miterlimit:10;}
	.st6{display:inline;fill:#FFFFFF;}
	.st7{display:inline;fill:#00FF00;}
</style>
<g id="Layer_1" class="st0">
	
		<image style="display:inline;overflow:visible;" width="1536" height="1536" xlink:href="5D95D156.jpg"  transform="matrix(0.3181 0 0 0.3181 24.9468 25.1589)">
	</image>
</g>
<g id="Dev" class="st0">
	<g id="Monitor" class="st1">
		<g>
			<rect x="232.7" y="334.6" class="st2" width="75.3" height="137"/>
			<path class="st2" d="M353.4,420.6H187.3c-3.3,0-6,2.7-6,6v39.1c0,3.3,2.7,6,6,6h166.1c3.3,0,6-2.7,6-6v-39.1
				C359.4,423.2,356.7,420.6,353.4,420.6z"/>
			<path class="st2" d="M42.4,73.9h455.9c7.2,0,13,5.8,13,13v263.9c0,7.2-5.8,13-13,13H42.4c-7.2,0-13-5.8-13-13V86.9
				C29.4,79.7,35.2,73.9,42.4,73.9z"/>
			<rect x="61.1" y="107.7" class="st3" width="418.4" height="222.2"/>
		</g>
	</g>
	<g id="Desktop">
		<g class="st1">
			<path class="st2" d="M403,509.5H137.7c-7.2,0-13-5.8-13-13v-454c0-7.2,5.8-13,13-13H403c7.2,0,13,5.8,13,13v454
				C416,503.6,410.2,509.5,403,509.5z"/>
			<rect x="148.6" y="100.1" class="st3" width="243.5" height="69.4"/>
			<rect x="148.6" y="200.7" class="st3" width="243.5" height="69.4"/>
			<circle class="st3" cx="270.3" cy="382.4" r="31"/>
		</g>
	</g>
	<g id="Cords">
		<g>
			<path class="st4" d="M147.3,258.6h-33.5c-24.6,0-44.6-20-44.6-44.6v-71.5c0-3.6,2.9-6.6,6.6-6.6h109.5c3.6,0,6.6,2.9,6.6,6.6
				v71.5C192,238.6,172,258.6,147.3,258.6z"/>
			<line class="st5" x1="420.9" y1="398.6" x2="420.9" y2="160.1"/>
			<line class="st5" x1="276.1" y1="376.1" x2="276.1" y2="160.1"/>
			<path class="st5" d="M276.1,165.3c0-40,32.4-72.4,72.4-72.4s72.4,32.4,72.4,72.4"/>
			<line class="st5" x1="131.3" y1="137.8" x2="131.3" y2="376.3"/>
			<path class="st5" d="M276.1,376.1c0,40-32.4,72.4-72.4,72.4s-72.4-32.4-72.4-72.4"/>
			<rect x="87.3" y="72" class="st4" width="86.7" height="76.1"/>
			<rect x="101.7" y="85.6" class="st6" width="59.1" height="49"/>
			<path class="st6" d="M140.6,245.2h-19.9c-21,0-38-17-38-38v-58h96v58C178.6,228.2,161.6,245.2,140.6,245.2z"/>
			<path class="st4" d="M404.2,283.1h33.5c24.6,0,44.6,20,44.6,44.6v71.5c0,3.6-2.9,6.6-6.6,6.6H366.2c-3.6,0-6.6-2.9-6.6-6.6v-71.5
				C359.6,303,379.6,283.1,404.2,283.1z"/>
			
				<rect x="377.6" y="393.5" transform="matrix(-1 -1.224647e-16 1.224647e-16 -1 841.8766 863.0421)" class="st4" width="86.7" height="76.1"/>
			
				<rect x="390.7" y="407" transform="matrix(-1 -1.224647e-16 1.224647e-16 -1 840.4841 863.0421)" class="st6" width="59.1" height="49"/>
			<path class="st6" d="M411,296.4h19.9c21,0,38,17,38,38v58h-96v-58C372.9,313.4,390,296.4,411,296.4z"/>
		</g>
		<g class="st1">
			<g>
				<path class="st2" d="M127.4,255.1H72.6c-24.6,0-44.6-20-44.6-44.6v-92.8c0-3.6,2.9-6.6,6.6-6.6h130.8c3.6,0,6.6,2.9,6.6,6.6
					v92.8C172,235.1,152,255.1,127.4,255.1z"/>
			</g>
			<g>
				<rect x="417.2" y="139.5" class="st2" width="46.9" height="279.9"/>
			</g>
			<g>
				<rect x="247.3" y="139.5" class="st2" width="46.9" height="253.4"/>
			</g>
			<g>
				<path class="st2" d="M464.1,145.6h-46.9c0-33.9-27.6-61.5-61.5-61.5s-61.5,27.6-61.5,61.5h-46.9c0-59.8,48.6-108.4,108.4-108.4
					C415.5,37.2,464.1,85.9,464.1,145.6z"/>
			</g>
			<g>
				<rect x="77.3" y="113.3" class="st2" width="46.9" height="279.9"/>
			</g>
			<g>
				<path class="st2" d="M185.8,501.4c-59.8,0-108.4-48.6-108.4-108.4h46.9c0,33.9,27.6,61.5,61.5,61.5s61.5-27.6,61.5-61.5h46.9
					C294.2,452.7,245.6,501.4,185.8,501.4z"/>
			</g>
			<g>
				<rect x="49.2" y="36.2" class="st2" width="101.7" height="89.3"/>
			</g>
			<g>
				<rect x="66.1" y="52.1" class="st3" width="69.3" height="57.5"/>
			</g>
			<g>
				<path class="st3" d="M118.3,239.4H81.7c-21,0-38-17-38-38v-74.6h112.6v74.6C156.3,222.4,139.3,239.4,118.3,239.4z"/>
			</g>
			<g>
				<path class="st2" d="M413.3,283.8h54.8c24.6,0,44.6,20,44.6,44.6v92.8c0,3.6-2.9,6.6-6.6,6.6H375.3c-3.6,0-6.6-2.9-6.6-6.6
					v-92.8C368.7,303.8,388.7,283.8,413.3,283.8z"/>
			</g>
			<g>
				
					<rect x="389.8" y="413.4" transform="matrix(-1 -1.224647e-16 1.224647e-16 -1 881.3561 916.0618)" class="st2" width="101.7" height="89.3"/>
			</g>
			<g>
				
					<rect x="405.2" y="429.3" transform="matrix(-1 -1.224647e-16 1.224647e-16 -1 879.7222 916.0618)" class="st3" width="69.3" height="57.5"/>
			</g>
			<g>
				<path class="st3" d="M422.4,299.5H459c21,0,38,17,38,38v74.6H384.4v-74.6C384.4,316.5,401.4,299.5,422.4,299.5z"/>
			</g>
		</g>
	</g>
	<g id="Laptop">
		<g class="st1">
			<path class="st2" d="M88.1,134.5h364.5c7.2,0,13,5.8,13,13v208.9c0,7.2-5.8,13-13,13H88.1c-7.2,0-13-5.8-13-13V147.5
				C75.1,140.3,80.9,134.5,88.1,134.5z"/>
			<path class="st2" d="M30.9,369.4h478.9c2.2,0,4,1.8,4,4v27c0,2.2-1.8,4-4,4H30.9c-2.2,0-4-1.8-4-4v-27
				C26.9,371.2,28.7,369.4,30.9,369.4z"/>
			<rect x="100.8" y="161.9" class="st3" width="339" height="180.1"/>
		</g>
	</g>
	<g id="Hardware">
		<g class="st1">
			<path class="st2" d="M382.3,417.2H158.8c-19.9,0-36-16.1-36-36V157.7c0-19.9,16.1-36,36-36h223.5c19.9,0,36,16.1,36,36v223.5
				C418.3,401.1,402.2,417.2,382.3,417.2z"/>
			<path class="st3" d="M359.9,378.8H181.3c-11.1,0-20.1-9-20.1-20.1V180.2c0-11.1,9-20.1,20.1-20.1h178.6c11.1,0,20.1,9,20.1,20.1
				v178.6C379.9,369.8,370.9,378.8,359.9,378.8z"/>
			<path class="st2" d="M196.4,98.9h-35.2V42.1c0-7.2,5.8-13,13-13h9.2c7.2,0,13,5.8,13,13V98.9z"/>
			<path class="st2" d="M288.2,98.9H253V42.1c0-7.2,5.8-13,13-13h9.2c7.2,0,13,5.8,13,13V98.9z"/>
			<path class="st2" d="M379.9,98.9h-35.2V42.1c0-7.2,5.8-13,13-13h9.2c7.2,0,13,5.8,13,13V98.9z"/>
			<path class="st2" d="M441.1,195.3v-35.2h56.8c7.2,0,13,5.8,13,13v9.2c0,7.2-5.8,13-13,13H441.1z"/>
			<path class="st2" d="M441.1,287v-35.2h56.8c7.2,0,13,5.8,13,13v9.2c0,7.2-5.8,13-13,13H441.1z"/>
			<path class="st2" d="M441.1,378.8v-35.2h56.8c7.2,0,13,5.8,13,13v9.2c0,7.2-5.8,13-13,13H441.1z"/>
			<path class="st2" d="M29.8,182.3v-9.2c0-7.2,5.8-13,13-13h56.8v35.2H42.8C35.6,195.3,29.8,189.4,29.8,182.3z"/>
			<path class="st2" d="M29.8,274v-9.2c0-7.2,5.8-13,13-13h56.8V287H42.8C35.6,287,29.8,281.2,29.8,274z"/>
			<path class="st2" d="M29.8,365.8v-9.2c0-7.2,5.8-13,13-13h56.8v35.2H42.8C35.6,378.8,29.8,373,29.8,365.8z"/>
			<path class="st2" d="M183.4,509.8h-9.2c-7.2,0-13-5.8-13-13V440h35.2v56.8C196.4,503.9,190.6,509.8,183.4,509.8z"/>
			<path class="st2" d="M275.2,509.8H266c-7.2,0-13-5.8-13-13V440h35.2v56.8C288.2,503.9,282.3,509.8,275.2,509.8z"/>
			<path class="st2" d="M366.9,509.8h-9.2c-7.2,0-13-5.8-13-13V440h35.2v56.8C379.9,503.9,374.1,509.8,366.9,509.8z"/>
		</g>
		<rect x="-72.1" y="403.9" class="st7" width="34.1" height="34.1"/>
	</g>
</g>
<g id="Production">
	<g id="Monitor_copy" class="st0">
		<path class="st4" d="M498.3,73.9H42.4c-7.2,0-13,5.8-13,13v263.9c0,7.2,5.8,13,13,13h190.3v56.8h-45.4c-3.3,0-6,2.7-6,6v39.1
			c0,3.3,2.7,6,6,6h45.4H308h45.4c3.3,0,6-2.7,6-6v-39.1c0-3.3-2.7-6-6-6H308v-56.8h190.3c7.2,0,13-5.8,13-13V86.9
			C511.3,79.7,505.5,73.9,498.3,73.9z M479.5,329.9H61.1V107.7h418.4V329.9z"/>
	</g>
	<g id="Desktop_copy" class="st0">
		<path class="st4" d="M416,29.5H124.7v480H416V29.5z M289.6,407.6c-31.1,19.5-63.9-13.3-44.4-44.4c1.5-2.4,3.5-4.4,5.9-5.9
			c31.1-19.5,63.9,13.3,44.4,44.4C294,404.1,292,406.1,289.6,407.6z M392.1,270.1H148.6v-69.4h243.5V270.1z M392.1,169.4H148.6
			v-69.4h243.5V169.4z"/>
	</g>
	<g id="Cords_copy" class="st0">
		<path class="st4" d="M468.1,283.8h-3.9V139.5H464c-3.2-56.9-50.5-102.3-108.3-102.3c-57.7,0-105.1,45.4-108.3,102.3h-0.2v253.4
			c0,33.9-27.6,61.5-61.5,61.5c-33.9,0-61.5-27.6-61.5-61.5V255.1h3.1c24.6,0,44.6-20,44.6-44.6v-92.8c0-3.6-2.9-6.6-6.6-6.6h-14.6
			V36.2H49.2v74.9H34.6c-3.6,0-6.6,2.9-6.6,6.6v92.8c0,24.6,20,44.6,44.6,44.6h4.7v138.2h0c0.2,59.6,48.7,108.1,108.4,108.1
			c59.8,0,108.4-48.6,108.4-108.4V145.6c0-33.9,27.6-61.5,61.5-61.5c33.9,0,61.5,27.6,61.5,61.5v138.2h-3.9
			c-24.6,0-44.6,20-44.6,44.6v92.8c0,3.6,2.9,6.6,6.6,6.6h14.6v74.9h101.7v-74.9h14.6c3.6,0,6.6-2.9,6.6-6.6v-92.8
			C512.7,303.8,492.7,283.8,468.1,283.8z M66.1,52.1h69.3v57.5H66.1V52.1z M81.7,239.4c-21,0-38-17-38-38v-74.6h112.6v74.6
			c0,21-17,38-38,38H81.7z M474.5,486.8h-69.3v-57.5h69.3V486.8z M497,412.1H384.4v-74.6c0-21,17-38,38-38H459c21,0,38,17,38,38
			V412.1z"/>
	</g>
	<g id="Laptop_copy">
		<path class="st2" d="M509.8,369.4h-57.2c7.2,0,13-5.8,13-13V147.5c0-7.2-5.8-13-13-13H88.1c-7.2,0-13,5.8-13,13v208.9
			c0,7.2,5.8,13,13,13H30.9c-2.2,0-4,1.8-4,4v27c0,2.2,1.8,4,4,4h478.9c2.2,0,4-1.8,4-4v-27C513.8,371.2,512,369.4,509.8,369.4z
			 M100.8,161.9h339V342h-339V161.9z"/>
	</g>
	<g id="Hardware_copy" class="st0">
		<g class="st1">
			<path class="st2" d="M382.3,121.7H158.8c-19.9,0-36,16.1-36,36v223.5c0,19.9,16.1,36,36,36h223.5c19.9,0,36-16.1,36-36V157.7
				C418.3,137.8,402.2,121.7,382.3,121.7z M379.9,358.7c0,11.1-9,20.1-20.1,20.1H181.3c-11.1,0-20.1-9-20.1-20.1V180.2
				c0-11.1,9-20.1,20.1-20.1h178.6c11.1,0,20.1,9,20.1,20.1V358.7z"/>
			<path class="st2" d="M196.4,98.9h-35.2V42.1c0-7.2,5.8-13,13-13h9.2c7.2,0,13,5.8,13,13V98.9z"/>
			<path class="st2" d="M288.2,98.9H253V42.1c0-7.2,5.8-13,13-13h9.2c7.2,0,13,5.8,13,13V98.9z"/>
			<path class="st2" d="M379.9,98.9h-35.2V42.1c0-7.2,5.8-13,13-13h9.2c7.2,0,13,5.8,13,13V98.9z"/>
			<path class="st2" d="M441.1,195.3v-35.2h56.8c7.2,0,13,5.8,13,13v9.2c0,7.2-5.8,13-13,13H441.1z"/>
			<path class="st2" d="M441.1,287v-35.2h56.8c7.2,0,13,5.8,13,13v9.2c0,7.2-5.8,13-13,13H441.1z"/>
			<path class="st2" d="M441.1,378.8v-35.2h56.8c7.2,0,13,5.8,13,13v9.2c0,7.2-5.8,13-13,13H441.1z"/>
			<path class="st2" d="M29.8,182.3v-9.2c0-7.2,5.8-13,13-13h56.8v35.2H42.8C35.6,195.3,29.8,189.4,29.8,182.3z"/>
			<path class="st2" d="M29.8,274v-9.2c0-7.2,5.8-13,13-13h56.8V287H42.8C35.6,287,29.8,281.2,29.8,274z"/>
			<path class="st2" d="M29.8,365.8v-9.2c0-7.2,5.8-13,13-13h56.8v35.2H42.8C35.6,378.8,29.8,373,29.8,365.8z"/>
			<path class="st2" d="M183.4,509.8h-9.2c-7.2,0-13-5.8-13-13V440h35.2v56.8C196.4,503.9,190.6,509.8,183.4,509.8z"/>
			<path class="st2" d="M275.2,509.8H266c-7.2,0-13-5.8-13-13V440h35.2v56.8C288.2,503.9,282.3,509.8,275.2,509.8z"/>
			<path class="st2" d="M366.9,509.8h-9.2c-7.2,0-13-5.8-13-13V440h35.2v56.8C379.9,503.9,374.1,509.8,366.9,509.8z"/>
		</g>
		<g id="Guides">
		</g>
	</g>
</g>
</svg>
